# xmcd CD database file
# Copyright (C) 1993-1996 Ti Kan
#
# Track frame offsets:
# 150
# 14235
# 27885
# 42725
# 56615
# 69557
# 82835
# 96612
# 109055
# 122102
# 135395
# 148757
# 165050
# 177637
# 189060
# 202542
# 215085
# 230272
# 241390
# 255420
# 268100
# 280777
# 292560
# 304252
# 318055
# 328895
# 344342
#
# Disc length: 4774 seconds
#
# Revision: 0
# Processed by: cddbd v1.4b41PL1 Copyright (c) Steve Scherf et al.
# Submitted via: inCDius 1.1b5
#
DISCID=8512a41b
DTITLE=Ernest Tubb - Walking the Floor Over You - Disc 3
DYEAR=1900
DGENRE=
TTITLE0=Those Simple Things Are Worth A Million Now
TTITLE1=Answer To Walking The Floor Over You
TTITLE2=You Won't Ever Forget Me
TTITLE3=Keep My Mem'ry In Your Heart
TTITLE4=I Lost My Ace Of Hearts
TTITLE5=Though The Days Were Only Seven
TTITLE6=With Tears In My Eyes
TTITLE7=With Tears In My Eyes
TTITLE8=Are You Waiting Just For Me
TTITLE9=I'll Get Along Somehow
TTITLE10=Blue Eyed Elaine
TTITLE11=You'll Love Me Too Late
TTITLE12=I'll Never Love Youu Though You're Gone
TTITLE13=I'm Too Blue To Worry Over You
TTITLE14=There's Nothing More To Say
TTITLE15=I Hate To See You Go
TTITLE16=I'll Always Be Glad To Take You Back
TTITLE17=Too Late To Worry, Too Blue To Cry
TTITLE18=I'm Wondering How
TTITLE19=Last Night I Dreamed
TTITLE20=This Time We're Really Through
TTITLE21=You May Have Your Picture
TTITLE22=I Ain't Goin' Honky Tonkin' Anymore
TTITLE23=Walking The Floor Over You
TTITLE24=Have You Changed Your Mind
TTITLE25=Just Rollin' On
TTITLE26=You Nearly Lose Your Mind
EXTD=
EXTT0=
EXTT1=
EXTT2=
EXTT3=
EXTT4=
EXTT5=
EXTT6=
EXTT7=
EXTT8=
EXTT9=
EXTT10=
EXTT11=
EXTT12=
EXTT13=
EXTT14=
EXTT15=
EXTT16=
EXTT17=
EXTT18=
EXTT19=
EXTT20=
EXTT21=
EXTT22=
EXTT23=
EXTT24=
EXTT25=
EXTT26=
PLAYORDER=
